<svg width="35" height="39" viewBox="0 0 35 39" fill="none" xmlns="http://www.w3.org/2000/svg">
    <path fill-rule="evenodd" clip-rule="evenodd" d="M19.283 4.04374L29.651 10.0297C30.7543 10.6667 31.434 11.844 31.434 13.118V14.9263C30.8286 13.5921 29.8164 12.4533 28.505 11.6961L22.2546 8.08749C20.048 6.81349 17.3293 6.81349 15.1227 8.08749L8.87227 11.6961C6.66563 12.9702 5.30629 15.3246 5.30629 17.8726V25.0899C5.30629 26.3937 5.66217 27.6467 6.30534 28.7303L5.34898 28.1782C4.24566 27.5412 3.56599 26.3639 3.56599 25.0899V13.118C3.56599 11.844 4.24566 10.6667 5.34898 10.0297L15.717 4.04374C16.8203 3.40674 18.1797 3.40674 19.283 4.04374ZM13.934 0.955503C16.1407 -0.318501 18.8593 -0.318501 21.066 0.955503L31.434 6.94149C33.6407 8.21549 35 10.5699 35 13.118V25.0899C35 27.6379 33.6407 29.9924 31.434 31.2664L21.066 37.2524C18.8593 38.5264 16.1407 38.5264 13.934 37.2524L3.56599 31.2664C1.35935 29.9924 0 27.6379 0 25.0899V13.118C0 10.5699 1.35935 8.21549 3.56599 6.94149L13.934 0.955503ZM21.066 10.1463L27.3163 13.755C28.7874 14.6043 29.6937 16.1739 29.6937 17.8726V20.1603C29.0996 18.7477 28.0558 17.5394 26.6851 16.748L24.0376 15.2195C21.831 13.9455 19.1123 13.9455 16.9056 15.2195L14.2582 16.748C12.0516 18.022 10.6922 20.3764 10.6922 22.9244V25.9814C10.6922 27.6581 11.2808 29.251 12.3121 30.5073L10.0609 29.2076C8.58984 28.3582 7.68361 26.7886 7.68361 25.0899V17.8726C7.68361 16.1739 8.58984 14.6043 10.0609 13.755L16.3113 10.1463C17.7824 9.29698 19.5949 9.29698 21.066 10.1463ZM25.4964 18.8068L22.849 17.2783C21.3779 16.429 19.5654 16.429 18.0943 17.2783L15.4469 18.8068C13.9758 19.6561 13.0695 21.2258 13.0695 22.9244V25.9814C13.0695 27.6801 13.9758 29.2497 15.4469 30.0991L17.3765 31.2131C16.5482 30.1464 16.0782 28.819 16.0782 27.4246C16.0782 25.2179 17.2554 23.1789 19.1664 22.0756C21.0774 20.9723 23.4319 20.9723 25.3429 22.0756C26.4745 22.7289 27.3488 23.7104 27.8737 24.8604V22.9244C27.8737 21.2258 26.9675 19.6561 25.4964 18.8068ZM18.4555 27.4246C18.4555 26.0673 19.1796 24.8131 20.3551 24.1344C21.5305 23.4558 22.9787 23.4558 24.1542 24.1344C25.3297 24.8131 26.0538 26.0673 26.0538 27.4246C26.0538 28.7819 25.3297 30.0361 24.1542 30.7147C22.9787 31.3934 21.5305 31.3934 20.3551 30.7147C19.1796 30.0361 18.4555 28.7819 18.4555 27.4246Z" fill="url(#paint0_linear)" />
    <defs>
        <linearGradient id="paint0_linear" x1="18" y1="20.5" x2="32" y2="44.5" gradientUnits="userSpaceOnUse">
            <stop stop-color="#21D3EB" />
            <stop offset="1" stop-color="#21EB8A" />
        </linearGradient>
    </defs>
</svg>
