<svg width="22" height="22" viewBox="0 0 22 22" fill="none" xmlns="http://www.w3.org/2000/svg">
    <path d="M20.1013 18.5561L18.5274 15.9326C17.8005 14.7217 17.4164 13.3348 17.4164 11.9231V9.625C17.4164 6.72375 15.4804 4.26985 12.8331 3.47875V1.83335C12.8331 0.82225 12.0108 0 10.9997 0C9.98864 0 9.16639 0.82225 9.16639 1.83335V3.47875C6.51909 4.26985 4.58309 6.72375 4.58309 9.625V11.9231C4.58309 13.3348 4.19899 14.7208 3.47299 15.9317L1.89909 18.5552C1.81384 18.6973 1.81199 18.8733 1.89359 19.0172C1.97519 19.1611 2.12644 19.25 2.29144 19.25H19.7081C19.8731 19.25 20.0252 19.1611 20.1068 19.0181C20.1884 18.8751 20.1857 18.6973 20.1013 18.5561Z" fill="#D8D8D8" />
    <path d="M8.11328 20.1665C8.63028 21.2464 9.72478 21.9998 10.9998 21.9998C12.2749 21.9998 13.3694 21.2464 13.8864 20.1665H8.11328Z" fill="#D8D8D8" />
    <circle cx="15.5" cy="6.5" r="4.5" fill="#FB8E60" stroke="white" stroke-width="2" />
</svg>
