<svg width="24" height="24" viewBox="0 0 24 24" fill="none" xmlns="http://www.w3.org/2000/svg">
    <g clip-path="url(#clip0)">
        <path d="M23.5 9H19.3998L14.7363 2.21682C14.58 1.98929 14.2687 1.93158 14.0411 2.08796L13.2169 2.65444C12.9893 2.81086 12.9316 3.12216 13.088 3.34974L16.9726 9H7.02741L10.912 3.34974C11.0684 3.12216 11.0107 2.81086 10.7831 2.65444L9.95883 2.08796C9.7313 1.93158 9.42 1.98929 9.26362 2.21682L4.60017 9H0.500016C0.223875 9 0 9.22383 0 9.50002V10.5C0 10.7761 0.223875 11 0.500016 11H1.13438L4.19095 20.6065C4.45659 21.44 5.2222 22 6.0967 22H17.9033C18.7778 22 19.5435 21.44 19.8091 20.606L22.8656 11H23.5C23.7762 11 24 10.7761 24 10.5V9.50002C24 9.22383 23.7761 9 23.5 9Z"  />
    </g>
    <defs>
        <clipPath id="clip0">
            <rect width="24" height="24" fill="white" />
        </clipPath>
    </defs>
</svg>
