<svg width="18" height="18" viewBox="0 0 18 18" fill="none" xmlns="http://www.w3.org/2000/svg">
    <path d="M4.50001 5.20314L8.29688 9.00001L4.50001 12.7969C4.30585 12.991 4.30585 13.3058 4.50001 13.5C4.69418 13.6942 5.00897 13.6942 5.20314 13.5L9 9.70313L12.7969 13.5C12.991 13.6942 13.3058 13.6942 13.5 13.5C13.6942 13.3058 13.6942 12.991 13.5 12.7969L9.70312 9.00001L13.5 5.20314C13.6942 5.00897 13.6942 4.69418 13.5 4.50001C13.3058 4.30584 12.991 4.30584 12.7969 4.50001L9 8.29688L5.20314 4.50001C5.00897 4.30584 4.69418 4.30585 4.50001 4.50001C4.30585 4.69418 4.30585 5.00897 4.50001 5.20314Z" fill="#535353" stroke="#535353" stroke-width="0.2" />
</svg>
