<svg width="24" height="24" viewBox="0 0 24 24" fill="none" xmlns="http://www.w3.org/2000/svg">
    <g clip-path="url(#clip0)">
        <path d="M23.4667 5.93632C23.4667 5.91095 23.4667 5.91095 23.4667 5.88558C23.4413 5.83484 23.4413 5.7841 23.416 5.73337V5.708C23.3906 5.65726 23.3399 5.60652 23.3145 5.58115L23.2891 5.55578C23.2638 5.53042 23.213 5.50505 23.1877 5.47968L23.1623 5.45431H23.1369L23.1115 5.42894L12.3298 0.0761066C12.1268 -0.0253689 11.8731 -0.0253689 11.6448 0.0761066L8.01706 1.8773L18.8496 7.43308L18.8749 7.45845C18.9003 7.45845 18.9003 7.48382 18.9257 7.48382C18.951 7.50919 18.951 7.53456 18.9764 7.55993C18.9764 7.5853 18.9764 7.5853 18.9764 7.61066V7.63603V13.5216C18.9764 13.6231 18.9257 13.6992 18.8496 13.7499L16.6679 14.8915C16.541 14.9676 16.3888 14.9169 16.3127 14.7901C16.2873 14.7647 16.2873 14.714 16.2873 14.6632V8.90448L5.32796 3.24722L5.30259 3.22185L0.913776 5.40357L0.888407 5.42894H0.863038L0.837669 5.45431C0.8123 5.47968 0.761562 5.50505 0.736193 5.53042L0.710825 5.55578C0.660087 5.60652 0.634718 5.65726 0.58398 5.708V5.73337C0.558611 5.7841 0.533242 5.83484 0.533242 5.88558C0.533242 5.91095 0.533242 5.91095 0.533242 5.93632C0.533242 5.98706 0.507874 6.01242 0.507874 6.06316V6.08853V17.9104C0.507874 18.1895 0.660087 18.4685 0.939144 18.5954L11.6194 23.9229C11.7717 23.999 11.9492 24.0243 12.1268 23.9736L12.1776 23.9482C12.2283 23.9482 12.2537 23.9229 12.3044 23.8975L23.0608 18.57C23.3145 18.4432 23.4921 18.1895 23.4921 17.8851V6.08853V6.06316C23.4667 6.01242 23.4667 5.98706 23.4667 5.93632Z"/>
    </g>
    <defs>
        <clipPath id="clip0">
            <rect width="24" height="24" fill="white" />
        </clipPath>
    </defs>
</svg>
