<svg width="22" height="22" viewBox="0 0 22 22" fill="none" xmlns="http://www.w3.org/2000/svg">
    <path d="M20.3395 15.9424H7.05631C6.13914 15.9424 5.39551 16.6864 5.39551 17.6039C5.39551 18.5207 6.13914 19.2647 7.05631 19.2647H20.3395C21.2563 19.2647 21.9999 18.5207 21.9999 17.6039C21.9999 16.6867 21.2563 15.9424 20.3395 15.9424Z" />
    <path d="M20.3395 9.33154H7.05631C6.13914 9.33154 5.39551 10.0752 5.39551 10.9927C5.39551 11.9099 6.13914 12.6535 7.05631 12.6535H20.3395C21.2563 12.6535 21.9999 11.9099 21.9999 10.9927C21.9999 10.0755 21.2563 9.33154 20.3395 9.33154Z" />
    <path d="M7.05631 6.04216H20.3395C21.2563 6.04216 21.9999 5.29853 21.9999 4.38101C21.9999 3.46349 21.2563 2.72021 20.3395 2.72021H7.05631C6.13914 2.72021 5.39551 3.46385 5.39551 4.38101C5.39551 5.29818 6.13914 6.04216 7.05631 6.04216Z" />
    <path d="M1.68589 6.08223C2.61698 6.08223 3.37178 5.32743 3.37178 4.39634C3.37178 3.46525 2.61698 2.71045 1.68589 2.71045C0.754799 2.71045 0 3.46525 0 4.39634C0 5.32743 0.754799 6.08223 1.68589 6.08223Z" />
    <path d="M1.68578 12.6782C2.61668 12.6782 3.37132 11.9236 3.37132 10.9927C3.37132 10.0618 2.61668 9.30713 1.68578 9.30713C0.754885 9.30713 0.000244141 10.0618 0.000244141 10.9927C0.000244141 11.9236 0.754885 12.6782 1.68578 12.6782Z" />
    <path d="M1.68589 19.2893C2.61698 19.2893 3.37178 18.5345 3.37178 17.6034C3.37178 16.6723 2.61698 15.9175 1.68589 15.9175C0.754799 15.9175 0 16.6723 0 17.6034C0 18.5345 0.754799 19.2893 1.68589 19.2893Z" />
    </svg>
