<svg width="22" height="22" viewBox="0 0 22 22" fill="none" xmlns="http://www.w3.org/2000/svg">
    <path d="M17.1875 0C14.5338 0 12.375 2.15875 12.375 4.8125C12.375 7.282 16.236 11.6559 16.676 12.1467C16.8066 12.2911 16.9922 12.375 17.1875 12.375C17.3828 12.375 17.5684 12.2911 17.699 12.1467C18.139 11.6559 22 7.282 22 4.8125C22 2.15875 19.8412 0 17.1875 0ZM17.1875 6.875C16.049 6.875 15.125 5.951 15.125 4.8125C15.125 3.674 16.049 2.75 17.1875 2.75C18.326 2.75 19.25 3.674 19.25 4.8125C19.25 5.951 18.326 6.875 17.1875 6.875Z"  />
    <path d="M0.43175 8.07675C0.171875 8.18125 0 8.43425 0 8.71613V21.3125C0 21.5408 0.114125 21.7539 0.3025 21.8818C0.418 21.9587 0.551375 22 0.6875 22C0.774125 22 0.86075 21.9835 0.94325 21.9505L6.875 19.5772V5.5L0.43175 8.07675Z"  />
    <path d="M18.722 13.0654C18.3315 13.4999 17.7719 13.7501 17.1875 13.7501C16.6031 13.7501 16.0435 13.4999 15.653 13.0654C15.5127 12.91 15.3326 12.7051 15.125 12.4617V22.0001L21.5682 19.4234C21.8295 19.3203 22 19.0659 22 18.7854V8.67773C20.8739 10.5849 19.3683 12.3449 18.722 13.0654Z"  />
    <path d="M11.4331 6.77325L8.25 5.5V19.5772L13.75 21.7773V10.736C12.8714 9.55212 11.9542 8.12625 11.4331 6.77325Z"  />
</svg>
