<svg width="24" height="24" viewBox="0 0 24 24" fill="none" xmlns="http://www.w3.org/2000/svg">
    <path d="M16.607 14.2416C19.488 10.1735 18.5245 4.54028 14.4563 1.66002C10.3882 -1.22023 4.755 -0.257392 1.87475 3.81144C-1.00551 7.87958 -0.0426705 13.5121 4.02616 16.3923C6.92981 18.4481 10.7688 18.6064 13.8314 16.7977L20.4859 23.4123C21.2044 24.1687 22.3999 24.199 23.1563 23.4804C23.9126 22.7626 23.9429 21.5672 23.2251 20.8108C23.2024 20.7867 23.1804 20.7647 23.1563 20.742L16.607 14.2416ZM9.23539 14.8583C6.02066 14.8589 3.41432 12.2547 3.41226 9.03994C3.41157 5.82521 6.01584 3.21887 9.23126 3.21749C12.4419 3.21612 15.0468 5.81626 15.053 9.02687C15.0585 12.2423 12.4556 14.8528 9.23952 14.8583C9.23814 14.8583 9.23746 14.8583 9.23539 14.8583Z" />
</svg>
