<svg width="24" height="24" viewBox="0 0 24 24" fill="none" xmlns="http://www.w3.org/2000/svg">
    <g clip-path="url(#clip0)">
        <path d="M22.963 14.676C22.962 14.675 22.96 14.674 22.959 14.672L21.421 13.259C21.473 12.833 21.5 12.411 21.5 12C21.5 11.589 21.473 11.167 21.421 10.741L22.963 9.324C23.472 8.845 23.588 8.085 23.243 7.469L21.546 4.535C21.206 3.93 20.467 3.642 19.79 3.853L17.794 4.483C17.117 3.956 16.387 3.532 15.619 3.22L15.158 1.171C15.007 0.493 14.394 0 13.7 0H10.3C9.60598 0 8.99298 0.493 8.84198 1.17L8.38098 3.22C7.61298 3.532 6.88298 3.956 6.20598 4.483L4.20798 3.853C3.53498 3.644 2.79398 3.929 2.45798 4.529L0.753982 7.475C0.411982 8.085 0.527982 8.845 1.04198 9.328L2.57998 10.741C2.52698 11.167 2.49998 11.589 2.49998 12C2.49998 12.411 2.52698 12.833 2.57898 13.259L1.03698 14.676C0.527982 15.155 0.411982 15.915 0.756982 16.53L2.45398 19.464C2.79398 20.07 3.53198 20.357 4.20998 20.147L6.20598 19.517C6.88298 20.044 7.61298 20.468 8.38098 20.78L8.84198 22.828C8.99298 23.507 9.60598 24 10.3 24H13.7C14.394 24 15.007 23.507 15.158 22.83L15.619 20.78C16.387 20.468 17.117 20.045 17.794 19.517L19.792 20.147C20.467 20.358 21.206 20.07 21.543 19.47L23.247 16.524C23.588 15.915 23.472 15.155 22.963 14.676ZM12 17C9.24298 17 6.99998 14.757 6.99998 12C6.99998 9.243 9.24298 7 12 7C14.757 7 17 9.243 17 12C17 14.757 14.757 17 12 17Z" />
    </g>
    <defs>
        <clipPath id="clip0">
            <rect width="24" height="24" fill="white" />
        </clipPath>
    </defs>
</svg>
