<svg width="18" height="17" viewBox="0 0 18 17" fill="none" xmlns="http://www.w3.org/2000/svg">
    <path d="M7.84656 1.01914C8.17907 -0.139497 9.82093 -0.139498 10.1534 1.01914L11.2102 4.70138C11.3621 5.23073 11.8549 5.58873 12.4052 5.56963L16.2338 5.43679C17.4385 5.39499 17.9459 6.95649 16.9467 7.63076L13.7712 9.77367C13.3147 10.0817 13.1265 10.661 13.3148 11.1785L14.6242 14.7787C15.0362 15.9115 13.7079 16.8765 12.7579 16.1346L9.73858 13.7768C9.30453 13.4378 8.69547 13.4378 8.26142 13.7768L5.24212 16.1346C4.29208 16.8765 2.96379 15.9115 3.37581 14.7787L4.68525 11.1785C4.87349 10.661 4.68528 10.0817 4.22878 9.77367L1.05332 7.63077C0.0541425 6.95649 0.561502 5.39499 1.76618 5.43679L5.59475 5.56963C6.14515 5.58873 6.63789 5.23073 6.78981 4.70138L7.84656 1.01914Z" fill="#FFCE50"/>
    </svg>
