<svg width="20" height="20" viewBox="0 0 20 20" fill="none" xmlns="http://www.w3.org/2000/svg">
    <g clip-path="url(#clip0)">
        <path d="M9.3618 9.36137V6.42432C8.21938 6.36009 7.10716 6.12294 6.04279 5.7168C5.73331 6.83606 5.54878 8.07158 5.50293 9.36137H9.3618Z" fill="#D8D8D8" />
        <path d="M9.3618 13.5757V10.6387H5.50293C5.54878 11.9285 5.73331 13.164 6.04279 14.2833C7.10716 13.8771 8.21938 13.6399 9.3618 13.5757Z" fill="#D8D8D8" />
        <path d="M6.44385 4.50696C7.36872 4.86475 8.35005 5.08081 9.36165 5.14505V1.05811C7.95932 1.47798 6.98053 3.13987 6.44385 4.50696Z" fill="#D8D8D8" />
        <path d="M13.5565 15.4931C12.6316 15.1353 11.6503 14.9192 10.6387 14.855V18.9419C12.041 18.522 13.0198 16.8601 13.5565 15.4931Z" fill="#D8D8D8" />
        <path d="M4.22492 9.36126C4.27417 7.886 4.49363 6.46873 4.86582 5.18884C3.97373 4.72452 3.15279 4.14289 2.41382 3.45215C0.977529 5.11111 0.136998 7.16858 0 9.36126H4.22492Z" fill="#D8D8D8" />
        <path d="M15.7752 10.6387C15.7259 12.1139 15.5065 13.5312 15.1343 14.8111C16.0264 15.2754 16.8473 15.8571 17.5863 16.5478C19.0226 14.8888 19.8631 12.8314 20.0001 10.6387H15.7752Z" fill="#D8D8D8" />
        <path d="M4.22492 10.6387H0C0.136998 12.8314 0.977529 14.8888 2.41382 16.5478C3.15279 15.8571 3.97373 15.2755 4.86582 14.8111C4.49363 13.5312 4.27417 12.1139 4.22492 10.6387Z" fill="#D8D8D8" />
        <path d="M9.36165 18.9419V14.855C8.35001 14.9192 7.36872 15.1352 6.44385 15.4931C6.98136 16.8624 7.96033 18.5223 9.36165 18.9419Z" fill="#D8D8D8" />
        <path d="M14.7157 16.0322C14.1123 17.5437 13.1308 19.1198 11.7051 19.8768C13.5575 19.561 15.2762 18.7316 16.6911 17.4591C16.0864 16.8973 15.4234 16.4197 14.7157 16.0322Z" fill="#D8D8D8" />
        <path d="M5.28403 16.0322C4.57635 16.4197 3.91323 16.8973 3.30859 17.4592C4.72352 18.7316 6.44221 19.5611 8.29462 19.8769C6.8687 19.1197 5.88726 17.5433 5.28403 16.0322Z" fill="#D8D8D8" />
        <path d="M5.28403 3.96764C5.88742 2.4562 6.8689 0.880057 8.29462 0.123047C6.44221 0.438823 4.72352 1.26828 3.30859 2.54074C3.91327 3.10258 4.57635 3.58012 5.28403 3.96764Z" fill="#D8D8D8" />
        <path d="M10.6382 10.6387V13.5757C11.7806 13.6399 12.8928 13.8771 13.9572 14.2832C14.2667 13.164 14.4512 11.9285 14.497 10.6387H10.6382Z" fill="#D8D8D8" />
        <path d="M15.1343 5.18884C15.5065 6.46873 15.7259 7.886 15.7752 9.36126H20.0001C19.8631 7.16858 19.0226 5.11111 17.5863 3.45215C16.8473 4.14289 16.0264 4.72449 15.1343 5.18884Z" fill="#D8D8D8" />
        <path d="M10.6382 6.42432V9.36137H14.497C14.4512 8.07158 14.2667 6.83606 13.9572 5.7168C12.8928 6.12294 11.7806 6.36012 10.6382 6.42432Z" fill="#D8D8D8" />
        <path d="M10.6382 1.05811V5.14501C11.6498 5.08081 12.6311 4.86475 13.556 4.50692C13.0185 3.13764 12.0395 1.47767 10.6382 1.05811Z" fill="#D8D8D8" />
        <path d="M11.7051 0.123047C13.131 0.880175 14.1124 2.45651 14.7157 3.96764C15.4234 3.58012 16.0865 3.10254 16.6911 2.5407C15.2761 1.26832 13.5575 0.438823 11.7051 0.123047Z" fill="#D8D8D8" />
    </g>
    <defs>
        <clipPath id="clip0">
            <rect width="20" height="20" fill="white" />
        </clipPath>
    </defs>
</svg>
